<?xml version="1.0" standalone="no"?>
<!DOCTYPE svg PUBLIC "-//W3C//DTD SVG 20010904//EN"
 "http://www.w3.org/TR/2001/REC-SVG-20010904/DTD/svg10.dtd">
<svg version="1.0" xmlns="http://www.w3.org/2000/svg"
 width="225.000000pt" height="225.000000pt" viewBox="0 0 225.000000 225.000000"
 preserveAspectRatio="xMidYMid meet">

<g transform="translate(0.000000,225.000000) scale(0.100000,-0.100000)">
<path d="M1070 2241 c-84 -27 -131 -75 -155 -154 -24 -80 0 -160 64 -221 l31
-30 0 -171 0 -171 -60 -29 -61 -29 -164 164 -164 164 5 40 c6 52 -18 102 -65
133 -118 79 -267 -70 -188 -188 31 -47 81 -71 133 -65 l40 5 164 -164 164
-164 -29 -61 -29 -60 -171 0 -171 0 -30 31 c-61 64 -141 88 -221 64 -101 -30
-157 -105 -157 -210 0 -105 56 -180 157 -210 80 -24 160 0 221 64 l30 31 171
0 171 0 29 -60 29 -61 -164 -164 -164 -164 -40 5 c-52 6 -102 -18 -133 -65
-79 -118 70 -267 188 -188 47 31 71 81 65 133 l-5 40 164 164 164 164 61 -29
60 -29 0 -171 0 -171 -31 -30 c-64 -61 -88 -141 -64 -221 30 -101 105 -157
210 -157 105 0 180 56 210 157 24 80 0 160 -64 221 l-31 30 0 171 0 171 60 29
61 29 164 -164 164 -164 -5 -40 c-6 -52 18 -102 65 -133 118 -79 267 70 188
188 -31 47 -81 71 -133 65 l-40 -5 -164 164 -164 164 29 61 29 60 171 0 171 0
30 -31 c61 -64 141 -88 221 -64 101 30 157 105 157 210 0 105 -56 180 -157
210 -80 24 -160 0 -221 -64 l-30 -31 -171 0 -171 0 -29 60 -29 61 164 164 164
164 40 -5 c52 -6 102 18 133 65 79 118 -70 267 -188 188 -47 -31 -71 -81 -65
-133 l5 -40 -164 -164 -164 -164 -61 29 -60 29 0 171 0 171 31 30 c64 61 88
141 64 221 -19 63 -54 107 -107 134 -44 23 -121 32 -158 20z m134 -893 c54
-16 128 -90 144 -144 28 -95 8 -178 -58 -244 -148 -149 -400 -44 -400 165 0
65 22 117 70 165 65 66 150 86 244 58z"/>
</g>
</svg>
