<?xml version="1.0" encoding="utf-8"?>
<!-- Generator: Adobe Illustrator 24.1.2, SVG Export Plug-In . SVG Version: 6.00 Build 0)  -->
<svg version="1.0" id="Layer_1" xmlns="http://www.w3.org/2000/svg" xmlns:xlink="http://www.w3.org/1999/xlink" x="0px" y="0px"
	 viewBox="0 0 52 34.7" style="enable-background:new 0 0 52 34.7;" xml:space="preserve">
<path d="M0.9,0h13.9c0.5,0,0.9,0.4,0.9,0.9v13.9c0,0.5-0.4,0.9-0.9,0.9H0.9c-0.5,0-0.9-0.4-0.9-0.9V0.9C0,0.4,0.4,0,0.9,0z M19.9,0
	h31.2C51.6,0,52,0.4,52,0.9v13.9c0,0.5-0.4,0.9-0.9,0.9H19.9c-0.5,0-0.9-0.4-0.9-0.9V0.9C19.1,0.4,19.5,0,19.9,0z M37.3,19.1h13.9
	c0.5,0,0.9,0.4,0.9,0.9v13.9c0,0.5-0.4,0.9-0.9,0.9H37.3c-0.5,0-0.9-0.4-0.9-0.9V19.9C36.4,19.5,36.8,19.1,37.3,19.1z M0.9,19.1
	h31.2c0.5,0,0.9,0.4,0.9,0.9v13.9c0,0.5-0.4,0.9-0.9,0.9H0.9c-0.5,0-0.9-0.4-0.9-0.9V19.9C0,19.5,0.4,19.1,0.9,19.1z"/>
</svg>