<?xml version="1.0" encoding="utf-8"?>
<!-- Generator: Adobe Illustrator 24.1.2, SVG Export Plug-In . SVG Version: 6.00 Build 0)  -->
<svg version="1.0" id="Layer_1" xmlns="http://www.w3.org/2000/svg" xmlns:xlink="http://www.w3.org/1999/xlink" x="0px" y="0px"
	 viewBox="0 0 52 47" style="enable-background:new 0 0 52 47;" xml:space="preserve">
<g>
	<path d="M23.4,17.6c-2-0.5-3.9-1.5-5.3-3L7.6,32.9c-0.2,0-0.4-0.1-0.5-0.1C3.2,32.8,0,36,0,39.9C0,43.8,3.2,47,7.1,47
		s7.1-3.2,7.1-7.1c0-1.5-0.4-2.8-1.3-4L23.4,17.6z"/>
	<path d="M26,14.1c0.2,0,0.4-0.1,0.5-0.1l10.6,18.3c1.4-1.5,3.2-2.5,5.3-3L31.8,11.1c0.8-1.1,1.3-2.5,1.3-4C33.1,3.2,29.9,0,26,0
		s-7.1,3.2-7.1,7.1S22.1,14.1,26,14.1z"/>
	<path d="M44.9,32.8c-2.8,0-5.2,1.6-6.4,4.1H17.5c0.3,0.9,0.4,2,0.4,3c0,1-0.2,2.1-0.4,3h21.1c1.1,2.4,3.6,4.1,6.4,4.1
		c3.9,0,7.1-3.2,7.1-7.1C52,36,48.8,32.8,44.9,32.8z"/>
</g>
</svg>
