<?xml version="1.0" encoding="utf-8"?>
<!-- Generator: Adobe Illustrator 24.1.2, SVG Export Plug-In . SVG Version: 6.00 Build 0)  -->
<svg version="1.0" id="Layer_1" xmlns="http://www.w3.org/2000/svg" xmlns:xlink="http://www.w3.org/1999/xlink" x="0px" y="0px"
	 viewBox="0 0 52 48.3" style="enable-background:new 0 0 52 48.3;" xml:space="preserve">
<g>
	<path d="M0,45c0,1.8,1.5,3.3,3.3,3.3c0,0,0,0,0,0h45.4c1.8,0,3.3-1.5,3.3-3.3v0V28.8H0V45z"/>
	<path d="M48.7,15.1h-6.7V6.8c0-3.7-3-6.7-6.8-6.8H16.8c-3.7,0-6.7,3-6.8,6.8v8.4H3.3c-1.8,0-3.3,1.5-3.3,3.3v5.4h52v-5.4
		C52,16.6,50.5,15.1,48.7,15.1z M16.8,6.7l18.4,0.1v8.4H16.8L16.8,6.7z"/>
</g>
</svg>
